<svg xmlns="http://www.w3.org/2000/svg" viewBox="0 0 32 32" fill="white">
<rect width="32" height="32" rx="6" fill="#050505"/>
<path d="M14 0h2v2H14Z M16 0h2v2H16Z M18 0h2v2H18Z M16 4h2v2H16Z M10 6h2v2H10Z M12 6h2v2H12Z M14 6h2v2H14Z M16 6h2v2H16Z M18 6h2v2H18Z M20 6h2v2H20Z M22 6h2v2H22Z M8 8h2v2H8Z M12 8h2v2H12Z M16 8h2v2H16Z M20 8h2v2H20Z M24 8h2v2H24Z M6 10h2v2H6Z M8 10h2v2H8Z M10 10h2v2H10Z M12 10h2v2H12Z M14 10h2v2H14Z M16 10h2v2H16Z M18 10h2v2H18Z M20 10h2v2H20Z M22 10h2v2H22Z M24 10h2v2H24Z M26 10h2v2H26Z M6 12h2v2H6Z M10 12h2v2H10Z M16 12h2v2H16Z M22 12h2v2H22Z M26 12h2v2H26Z M6 14h2v2H6Z M10 14h2v2H10Z M16 14h2v2H16Z M22 14h2v2H22Z M26 14h2v2H26Z M4 16h2v2H4Z M6 16h2v2H6Z M8 16h2v2H8Z M10 16h2v2H10Z M12 16h2v2H12Z M14 16h2v2H14Z M16 16h2v2H16Z M18 16h2v2H18Z M20 16h2v2H20Z M22 16h2v2H22Z M24 16h2v2H24Z M26 16h2v2H26Z M28 16h2v2H28Z M6 18h2v2H6Z M10 18h2v2H10Z M16 18h2v2H16Z M22 18h2v2H22Z M26 18h2v2H26Z M6 20h2v2H6Z M10 20h2v2H10Z M16 20h2v2H16Z M22 20h2v2H22Z M26 20h2v2H26Z M6 22h2v2H6Z M8 22h2v2H8Z M10 22h2v2H10Z M12 22h2v2H12Z M14 22h2v2H14Z M16 22h2v2H16Z M18 22h2v2H18Z M20 22h2v2H20Z M22 22h2v2H22Z M24 22h2v2H24Z M26 22h2v2H26Z M8 24h2v2H8Z M12 24h2v2H12Z M16 24h2v2H16Z M20 24h2v2H20Z M24 24h2v2H24Z M10 26h2v2H10Z M12 26h2v2H12Z M14 26h2v2H14Z M16 26h2v2H16Z M18 26h2v2H18Z M20 26h2v2H20Z M22 26h2v2H22Z M16 28h2v2H16Z"/>
</svg>