<svg width="160" height="160" viewBox="0 0 160 160" fill="none" xmlns="http://www.w3.org/2000/svg">
<g clip-path="url(#clip0_400_106)">
<rect width="160" height="160" fill="white"/>
<g filter="url(#filter0_f_400_106)">
<ellipse cx="28" cy="63.5" rx="12" ry="9.5" fill="#8B93E8"/>
</g>
<path d="M31.5348 87.26C30.7482 87.26 29.9948 87.1367 29.2748 86.89C28.5548 86.6367 27.9248 86.2767 27.3848 85.81C26.8448 85.3367 26.4548 84.7733 26.2148 84.12L29.0348 83.08C29.1015 83.2733 29.2482 83.46 29.4748 83.64C29.7082 83.82 30.0015 83.97 30.3548 84.09C30.7082 84.2033 31.1015 84.26 31.5348 84.26C31.9348 84.26 32.3115 84.2033 32.6648 84.09C33.0182 83.97 33.3048 83.8067 33.5248 83.6C33.7448 83.3933 33.8548 83.1533 33.8548 82.88C33.8548 82.6 33.7382 82.37 33.5048 82.19C33.2782 82.0033 32.9848 81.8567 32.6248 81.75C32.2715 81.6367 31.9082 81.5533 31.5348 81.5C30.5215 81.3533 29.6115 81.1133 28.8048 80.78C28.0048 80.44 27.3715 79.9733 26.9048 79.38C26.4448 78.7867 26.2148 78.0333 26.2148 77.12C26.2148 76.2467 26.4615 75.4833 26.9548 74.83C27.4482 74.17 28.0982 73.6567 28.9048 73.29C29.7182 72.9233 30.5948 72.74 31.5348 72.74C32.3215 72.74 33.0748 72.8667 33.7948 73.12C34.5215 73.3667 35.1548 73.7267 35.6948 74.2C36.2348 74.6733 36.6215 75.24 36.8548 75.9L34.0348 76.92C33.9682 76.7267 33.8182 76.5433 33.5848 76.37C33.3582 76.19 33.0682 76.0433 32.7148 75.93C32.3615 75.8167 31.9682 75.76 31.5348 75.76C31.1482 75.7533 30.7782 75.81 30.4248 75.93C30.0715 76.05 29.7815 76.2133 29.5548 76.42C29.3282 76.6267 29.2148 76.86 29.2148 77.12C29.2148 77.48 29.3215 77.75 29.5348 77.93C29.7482 78.1033 30.0282 78.2267 30.3748 78.3C30.7282 78.3733 31.1148 78.44 31.5348 78.5C32.4948 78.64 33.3782 78.89 34.1848 79.25C34.9915 79.61 35.6382 80.09 36.1248 80.69C36.6115 81.29 36.8548 82.02 36.8548 82.88C36.8548 83.7533 36.6082 84.52 36.1148 85.18C35.6282 85.8333 34.9815 86.3433 34.1748 86.71C33.3682 87.0767 32.4882 87.26 31.5348 87.26ZM44.3414 83.72L47.0414 85.18C46.5814 85.8067 46.0047 86.31 45.3114 86.69C44.6181 87.07 43.8614 87.26 43.0414 87.26C42.1214 87.26 41.2814 87.0233 40.5214 86.55C39.7681 86.0767 39.1647 85.4433 38.7114 84.65C38.2647 83.85 38.0414 82.9667 38.0414 82C38.0414 81.2667 38.1714 80.5833 38.4314 79.95C38.6914 79.31 39.0481 78.75 39.5014 78.27C39.9614 77.7833 40.4947 77.4033 41.1014 77.13C41.7081 76.8567 42.3547 76.72 43.0414 76.72C43.8614 76.72 44.6181 76.91 45.3114 77.29C46.0047 77.67 46.5814 78.18 47.0414 78.82L44.3414 80.28C44.1614 80.1 43.9581 79.9633 43.7314 79.87C43.5114 79.77 43.2814 79.72 43.0414 79.72C42.6614 79.72 42.3214 79.8267 42.0214 80.04C41.7214 80.2533 41.4814 80.5333 41.3014 80.88C41.1281 81.2267 41.0414 81.6 41.0414 82C41.0414 82.3933 41.1281 82.7633 41.3014 83.11C41.4814 83.45 41.7214 83.7267 42.0214 83.94C42.3214 84.1533 42.6614 84.26 43.0414 84.26C43.2814 84.26 43.5114 84.2133 43.7314 84.12C43.9581 84.02 44.1614 83.8867 44.3414 83.72ZM52.8266 87.26C51.9066 87.26 51.0666 87.0233 50.3066 86.55C49.5532 86.0767 48.9499 85.44 48.4966 84.64C48.0499 83.84 47.8266 82.9567 47.8266 81.99C47.8266 81.2633 47.9566 80.5833 48.2166 79.95C48.4766 79.31 48.8332 78.75 49.2866 78.27C49.7466 77.7833 50.2799 77.4033 50.8866 77.13C51.4932 76.8567 52.1399 76.72 52.8266 76.72C53.6266 76.72 54.3566 76.8967 55.0166 77.25C55.6832 77.5967 56.2432 78.07 56.6966 78.67C57.1566 79.2633 57.4832 79.9333 57.6766 80.68C57.8699 81.4267 57.8899 82.1967 57.7366 82.99H51.0666C51.1599 83.2233 51.2832 83.4367 51.4366 83.63C51.5966 83.8167 51.7899 83.9667 52.0166 84.08C52.2499 84.1933 52.5199 84.2533 52.8266 84.26C53.1199 84.2667 53.3899 84.2033 53.6366 84.07C53.8899 83.9367 54.1099 83.7567 54.2966 83.53L57.3566 84.24C56.9499 85.1267 56.3432 85.8533 55.5366 86.42C54.7299 86.98 53.8266 87.26 52.8266 87.26ZM50.9566 80.79H54.7066C54.6132 80.5033 54.4732 80.25 54.2866 80.03C54.0999 79.81 53.8799 79.6367 53.6266 79.51C53.3799 79.3833 53.1132 79.32 52.8266 79.32C52.5466 79.32 52.2799 79.3833 52.0266 79.51C51.7799 79.6367 51.5632 79.81 51.3766 80.03C51.1966 80.25 51.0566 80.5033 50.9566 80.79ZM68.715 80.61V87H65.715V81.45C65.715 81.1367 65.6383 80.8533 65.485 80.6C65.3317 80.34 65.1283 80.1367 64.875 79.99C64.6217 79.8367 64.3383 79.76 64.025 79.76C63.7117 79.76 63.425 79.8367 63.165 79.99C62.9117 80.1367 62.7083 80.34 62.555 80.6C62.4083 80.8533 62.335 81.1367 62.335 81.45V87H59.335L59.325 77H62.325L62.335 77.63C62.6683 77.3433 63.0483 77.12 63.475 76.96C63.9017 76.8 64.3517 76.72 64.825 76.72C65.545 76.72 66.1983 76.8967 66.785 77.25C67.3717 77.5967 67.8383 78.0633 68.185 78.65C68.5383 79.2367 68.715 79.89 68.715 80.61ZM76.2117 80H74.5117V87H71.5117V80H70.2117V77H71.5117V73.86H74.5117V77H76.2117V80ZM78.0164 87V73H83.2964C84.0631 73 84.7564 73.1967 85.3764 73.59C86.0031 73.9767 86.4997 74.4967 86.8664 75.15C87.2331 75.7967 87.4164 76.5067 87.4164 77.28C87.4164 78.0667 87.2264 78.7833 86.8464 79.43C86.4731 80.0767 85.9731 80.5933 85.3464 80.98C84.7197 81.3667 84.0364 81.56 83.2964 81.56H81.0164V87H78.0164ZM81.0164 78.56H82.9564C83.2231 78.56 83.4664 78.4933 83.6864 78.36C83.9064 78.22 84.0831 78.0367 84.2164 77.81C84.3497 77.5833 84.4164 77.3333 84.4164 77.06C84.4164 76.7867 84.3497 76.5367 84.2164 76.31C84.0831 76.0833 83.9064 75.9033 83.6864 75.77C83.4664 75.63 83.2231 75.56 82.9564 75.56H81.0164V78.56ZM89.1297 87V72H92.1297V87H89.1297ZM101.485 77H104.485V87H101.475L101.335 86.1C101.089 86.4467 100.775 86.7267 100.395 86.94C100.022 87.1533 99.5855 87.26 99.0855 87.26C98.3388 87.26 97.6388 87.12 96.9855 86.84C96.3388 86.56 95.7688 86.1733 95.2755 85.68C94.7821 85.18 94.3955 84.6067 94.1155 83.96C93.8421 83.3067 93.7055 82.6067 93.7055 81.86C93.7055 81.1467 93.8355 80.48 94.0955 79.86C94.3555 79.24 94.7188 78.6967 95.1855 78.23C95.6588 77.7567 96.2021 77.3867 96.8155 77.12C97.4355 76.8533 98.0988 76.72 98.8055 76.72C99.3788 76.72 99.8988 76.84 100.365 77.08C100.839 77.3133 101.259 77.6067 101.625 77.96L101.485 77ZM99.0055 84.38C99.4188 84.38 99.7955 84.2733 100.135 84.06C100.475 83.8467 100.745 83.56 100.945 83.2C101.145 82.84 101.245 82.44 101.245 82C101.245 81.56 101.145 81.16 100.945 80.8C100.745 80.44 100.475 80.1533 100.135 79.94C99.7955 79.7267 99.4188 79.62 99.0055 79.62C98.5921 79.62 98.2155 79.7267 97.8755 79.94C97.5421 80.1533 97.2755 80.44 97.0755 80.8C96.8821 81.16 96.7855 81.56 96.7855 82C96.7855 82.44 96.8855 82.84 97.0855 83.2C97.2855 83.56 97.5521 83.8467 97.8855 84.06C98.2255 84.2733 98.5988 84.38 99.0055 84.38ZM115.883 80.61V87H112.883V81.45C112.883 81.1367 112.806 80.8533 112.653 80.6C112.5 80.34 112.296 80.1367 112.043 79.99C111.79 79.8367 111.506 79.76 111.193 79.76C110.88 79.76 110.593 79.8367 110.333 79.99C110.08 80.1367 109.876 80.34 109.723 80.6C109.576 80.8533 109.503 81.1367 109.503 81.45V87H106.503L106.493 77H109.493L109.503 77.63C109.836 77.3433 110.216 77.12 110.643 76.96C111.07 76.8 111.52 76.72 111.993 76.72C112.713 76.72 113.366 76.8967 113.953 77.25C114.54 77.5967 115.006 78.0633 115.353 78.65C115.706 79.2367 115.883 79.89 115.883 80.61ZM122.084 87.26C121.164 87.26 120.324 87.0233 119.564 86.55C118.811 86.0767 118.208 85.44 117.754 84.64C117.308 83.84 117.084 82.9567 117.084 81.99C117.084 81.2633 117.214 80.5833 117.474 79.95C117.734 79.31 118.091 78.75 118.544 78.27C119.004 77.7833 119.538 77.4033 120.144 77.13C120.751 76.8567 121.398 76.72 122.084 76.72C122.884 76.72 123.614 76.8967 124.274 77.25C124.941 77.5967 125.501 78.07 125.954 78.67C126.414 79.2633 126.741 79.9333 126.934 80.68C127.128 81.4267 127.148 82.1967 126.994 82.99H120.324C120.418 83.2233 120.541 83.4367 120.694 83.63C120.854 83.8167 121.048 83.9667 121.274 84.08C121.508 84.1933 121.778 84.2533 122.084 84.26C122.378 84.2667 122.648 84.2033 122.894 84.07C123.148 83.9367 123.368 83.7567 123.554 83.53L126.614 84.24C126.208 85.1267 125.601 85.8533 124.794 86.42C123.988 86.98 123.084 87.26 122.084 87.26ZM120.214 80.79H123.964C123.871 80.5033 123.731 80.25 123.544 80.03C123.358 79.81 123.138 79.6367 122.884 79.51C122.638 79.3833 122.371 79.32 122.084 79.32C121.804 79.32 121.538 79.3833 121.284 79.51C121.038 79.6367 120.821 79.81 120.634 80.03C120.454 80.25 120.314 80.5033 120.214 80.79ZM134.18 80H132.48V87H129.48V80H128.18V77H129.48V73.86H132.48V77H134.18V80Z" fill="#2B2B2B"/>
</g>
<defs>
<filter id="filter0_f_400_106" x="-4" y="34" width="64" height="59" filterUnits="userSpaceOnUse" color-interpolation-filters="sRGB">
<feFlood flood-opacity="0" result="BackgroundImageFix"/>
<feBlend mode="normal" in="SourceGraphic" in2="BackgroundImageFix" result="shape"/>
<feGaussianBlur stdDeviation="10" result="effect1_foregroundBlur_400_106"/>
</filter>
<clipPath id="clip0_400_106">
<rect width="160" height="160" fill="white"/>
</clipPath>
</defs>
</svg>
